<svg xmlns="http://www.w3.org/2000/svg" xmlns:xlink="http://www.w3.org/1999/xlink" aria-hidden="true" role="img" class="iconify iconify--solar mat-mdc-list-item-icon routeIcon ng-tns-c1496236254-327 mdc-list-item__start ng-star-inserted"   preserveAspectRatio="xMidYMid meet" viewBox="0 0 24 24" matlistitemicon="" data-icon="solar:chart-line-duotone" width="24"  height="24" ><g fill="none" stroke="#29343D" stroke-width="1.5px"><path stroke-linecap="round" d="M22 22H2" stroke="#29343D" fill="none" stroke-width="1.5px"></path><path d="M21 22v-7.5a1.5 1.5 0 0 0-1.5-1.5h-3a1.5 1.5 0 0 0-1.5 1.5V22" opacity=".5" stroke="#29343D" fill="none" stroke-width="1.5px"></path><path d="M15 22V5c0-1.414 0-2.121-.44-2.56C14.122 2 13.415 2 12 2s-2.121 0-2.56.44C9 2.878 9 3.585 9 5v17" stroke="#29343D" fill="none" stroke-width="1.5px"></path><path d="M9 22V9.5A1.5 1.5 0 0 0 7.5 8h-3A1.5 1.5 0 0 0 3 9.5V22" opacity=".5" stroke="#29343D" fill="none" stroke-width="1.5px"></path></g></svg>