<svg xmlns="http://www.w3.org/2000/svg" xmlns:xlink="http://www.w3.org/1999/xlink" aria-hidden="true" role="img" class="iconify iconify--solar mat-mdc-list-item-icon routeIcon ng-tns-c1496236254-333 mdc-list-item__start ng-star-inserted"   preserveAspectRatio="xMidYMid meet" viewBox="0 0 24 24" matlistitemicon="" data-icon="solar:letter-line-duotone" width="24"  height="24" ><g fill="none" stroke="#29343D" stroke-width="1.5px"><path d="M2 12c0-3.771 0-5.657 1.172-6.828S6.229 4 10 4h4c3.771 0 5.657 0 6.828 1.172S22 8.229 22 12s0 5.657-1.172 6.828S17.771 20 14 20h-4c-3.771 0-5.657 0-6.828-1.172S2 15.771 2 12Z" opacity=".5" stroke="#29343D" fill="none" stroke-width="1.5px"></path><path stroke-linecap="round" d="m6 8l2.159 1.8c1.837 1.53 2.755 2.295 3.841 2.295s2.005-.765 3.841-2.296L18 8" stroke="#29343D" fill="none" stroke-width="1.5px"></path></g></svg>