<svg xmlns="http://www.w3.org/2000/svg" xmlns:xlink="http://www.w3.org/1999/xlink" aria-hidden="true" role="img" class="iconify iconify--solar mat-mdc-list-item-icon routeIcon ng-tns-c1496236254-331 mdc-list-item__start ng-star-inserted"   preserveAspectRatio="xMidYMid meet" viewBox="0 0 24 24" matlistitemicon="" data-icon="solar:chat-round-line-line-duotone" width="24"  height="24" ><g fill="none" stroke="#29343D" stroke-width="1.5px"><path d="M12 22c5.523 0 10-4.477 10-10S17.523 2 12 2S2 6.477 2 12c0 1.6.376 3.112 1.043 4.453c.178.356.237.763.134 1.148l-.595 2.226a1.3 1.3 0 0 0 1.591 1.592l2.226-.596a1.63 1.63 0 0 1 1.149.133A9.96 9.96 0 0 0 12 22Z" stroke="#29343D" fill="none" stroke-width="1.5px"></path><path stroke-linecap="round" d="M8 10.5h8M8 14h5.5" opacity=".5" stroke="#29343D" fill="none" stroke-width="1.5px"></path></g></svg>